<svg viewBox="0 -32 512.00135 512" xmlns="http://www.w3.org/2000/svg"><path d="m48.40625 231.785156c-1.792969 1.691406-4.214844 2.730469-6.875 2.730469-3.292969 0-6.21875-1.59375-8.042969-4.046875l-31.15625-37.128906c-3.546875-4.234375-2.984375-10.546875 1.253907-14.09375 4.234374-3.542969 10.546874-2.984375 14.09375 1.253906l15.292968 18.226562c5.90625-51.695312 29.375-98.058593 64.289063-132.972656 40.625-40.625 96.75-65.753906 158.738281-65.753906 53.148438 0 102 18.5 140.476562 49.417969 39.214844 31.507812 67.621094 75.921875 78.785157 126.796875 1.164062 5.40625-2.269531 10.734375-7.675781 11.902344-5.40625 1.167968-10.734376-2.265626-11.902344-7.671876-10.160156-46.316406-36.027344-86.753906-71.734375-115.449218-35.003907-28.121094-79.492188-44.953125-127.945313-44.953125-56.460937 0-107.570312 22.882812-144.570312 59.882812-32.011719 32.011719-53.453125 74.597657-58.652344 122.066407l19.902344-16.699219c4.234375-3.546875 10.546875-2.984375 14.089844 1.253906 3.546874 4.234375 2.988281 10.546875-1.25 14.09375zm136.382812-27.890625-10.886718-33.332031h52.09375c5.535156 0 10.019531-4.488281 10.019531-10.023438 0-5.535156-4.484375-10.023437-10.019531-10.023437h-58.640625l-10.058594-30.796875c-1.371094-4.226562-5.292969-6.914062-9.511719-6.914062l-37.542968-.015626c-5.535157 0-10.019532 4.484376-10.019532 10.019532s4.484375 10.023437 10.019532 10.023437h30.292968c17.949219 54.96875 35.902344 109.941407 53.851563 164.914063-7.121094 1.460937-13.484375 4.996094-18.4375 9.949218-6.609375 6.609376-10.699219 15.742188-10.699219 25.824219 0 10.085938 4.089844 19.21875 10.699219 25.824219 6.609375 6.613281 15.742187 10.699219 25.824219 10.699219 10.085937 0 19.214843-4.085938 25.828124-10.699219 6.609376-6.609375 10.695313-15.738281 10.695313-25.824219 0-5.929687-1.414063-11.527343-3.921875-16.480469h69.585938c-2.519532 4.957032-3.941407 10.554688-3.941407 16.480469 0 10.085938 4.089844 19.214844 10.699219 25.824219 6.609375 6.613281 15.742188 10.699219 25.828125 10.699219 10.082031 0 19.214844-4.085938 25.824219-10.699219 6.609375-6.609375 10.695312-15.738281 10.695312-25.824219 0-10.054687-4.082031-19.167969-10.6875-25.777343-6.789062-6.796876-16.238281-10.746094-25.855468-10.746094h-121.332032l-5.773437-17.683594 127.132812-.015625c4.214844 0 8.136719-2.6875 9.511719-6.914063l35.304688-108.121093c.460937-1.148438.714843-2.40625.714843-3.722657 0-5.535156-4.484375-10.023437-10.019531-10.023437h-65.890625c-5.535156 0-10.019531 4.488281-10.019531 10.023437 0 5.535157 4.484375 10.023438 10.019531 10.023438h52.09375l-10.886719 33.332031zm156.046876 20.035157h-149.507813l11.542969 35.339843h126.425781zm-74.753907-73.414063c-5.535156 0-10.019531 4.488281-10.019531 10.023437 0 5.535157 4.484375 10.019532 10.019531 10.019532 5.535157 0 10.023438-4.484375 10.023438-10.019532 0-5.535156-4.488281-10.023437-10.023438-10.023437zm71.152344 166.5c4.277344.171875 8.140625 1.980469 10.972656 4.820313 2.976563 2.976562 4.820313 7.109374 4.820313 11.683593 0 4.554688-1.847656 8.675781-4.828125 11.65625s-7.101563 4.824219-11.652344 4.824219-8.671875-1.84375-11.652344-4.824219c-2.984375-2.984375-4.828125-7.105469-4.828125-11.65625 0-4.574219 1.84375-8.707031 4.820313-11.683593 2.730469-2.734376 6.417969-4.515626 10.511719-4.796876.703124-.058593 1.117187-.058593 1.835937-.023437zm-123.804687 4.851563c2.980468 2.980468 4.824218 7.101562 4.824218 11.652343 0 4.554688-1.84375 8.671875-4.824218 11.65625-2.980469 2.980469-7.101563 4.824219-11.652344 4.824219-4.554688 0-8.675782-1.84375-11.652344-4.828125-2.984375-2.980469-4.828125-7.101563-4.828125-11.652344s1.84375-8.671875 4.828125-11.652343c2.976562-2.984376 7.101562-4.828126 11.652344-4.828126 4.550781 0 8.671875 1.84375 11.652344 4.828126zm225.890624-58.175782 19.898438-16.699218c-5.195312 47.46875-26.640625 90.054687-58.652344 122.066406-36.996094 36.996094-88.109375 59.878906-144.566406 59.878906-48.453125 0-92.945312-16.828125-127.949219-44.953125-35.707031-28.6875-61.574219-69.128906-71.734375-115.445313-1.167968-5.40625-6.496094-8.839843-11.898437-7.671874-5.40625 1.164062-8.84375 6.496093-7.675781 11.898437 11.160156 50.878906 39.566406 95.292969 78.78125 126.800781 38.480468 30.917969 87.332031 49.417969 140.480468 49.417969 61.988282 0 118.109375-25.128906 158.734375-65.753906 34.914063-34.914063 58.386719-81.277344 64.289063-132.972657l15.296875 18.226563c3.542969 4.234375 9.855469 4.796875 14.09375 1.25 4.234375-3.542969 4.796875-9.855469 1.253906-14.089844l-31.15625-37.128906c-1.828125-2.457031-4.75-4.046875-8.042969-4.046875-2.664062 0-5.082031 1.039062-6.875 2.730469l-37.117187 31.144531c-4.238281 3.546875-4.800781 9.859375-1.253907 14.097656 3.546876 4.234375 9.855469 4.796875 14.09375 1.25zm0 0" fill-rule="evenodd"/></svg>